# xmcd
#
# Track frame offsets:
# 150
# 41908
# 71880
# 109218
# 142983
# 179453
# 213813
# 248680
#
# Disc length: 3779 seconds
#
#
# Revision: 0
# Processed by: cddbd v1.5.2PL0 Copyright (c) Steve Scherf et al.
# Submitted via: FreeRIP 2.942 
#
DISCID=750ec108
DTITLE=Various Artist - Convite para Ouvir Samba Bom
DYEAR=1900
DGENRE=Samba
TTITLE0=Vai Passar - Apesar de V. - Deseperar Jamais, +++
TTITLE1=Reunião de Bacanas, O Ouro e a Madeira, +++
TTITLE2=Samba Vem, Samba Vai, Homenagem ao Malandro, +++
TTITLE3=O Trem no Samba, Os Meninos da Mangueira, +++
TTITLE4=Enredo do Meu Samba, Poxa, Último Carnaval, +++
TTITLE5=Samba Maravilha, Que Maravilha, Que Pena, +++
TTITLE6=Samba na Avenida, Foi Um Rio que Passou em Minha Vida, +++
TTITLE7=Na Cadência do Samba, Não Deixa o Samba Morrer, +++
EXTD=
EXTT0=
EXTT1=
EXTT2=
EXTT3=
EXTT4=
EXTT5=
EXTT6=
EXTT7=
PLAYORDER=
